<?xml version="1.0" encoding="iso-8859-1"?>
<!-- Uploaded to: SVG Repo, www.svgrepo.com, Generator: SVG Repo Mixer Tools -->
<svg fill="#000000" height="800px" width="800px" version="1.1" id="Layer_1" xmlns="http://www.w3.org/2000/svg" xmlns:xlink="http://www.w3.org/1999/xlink" 
	 viewBox="0 0 511.999 511.999" xml:space="preserve">
<g>
	<g>
		<path d="M9.017,0C4.355,0,0.578,3.778,0.578,8.439v93.537c0,4.662,3.777,8.439,8.439,8.439c4.662,0,8.439-3.778,8.439-8.439V8.439
			C17.456,3.778,13.679,0,9.017,0z"/>
	</g>
</g>
<g>
	<g>
		<path d="M502.98,495.088H124.328c20.508-6.53,38.662-14.795,54.159-24.678c26.257-16.743,44.936-38.165,55.52-63.668
			c2.708-6.526,5.364-13.885,7.89-21.872c1.406-4.443-1.057-9.186-5.5-10.591c-4.442-1.404-9.186,1.057-10.591,5.501
			c-2.38,7.522-4.865,14.416-7.386,20.492c-9.213,22.198-25.647,40.974-48.847,55.807c-12.636,8.078-27.294,15.007-43.76,20.723
			c23.925-17.775,40.784-41.695,49.604-70.852c8.501-28.102,15.125-58.791,21.533-88.468
			c14.094-65.286,27.54-127.537,57.398-146.241c3.441,7.543,6.611,15.911,9.647,24.937c-4.287,20.754-8.169,42.299-12.025,63.695
			c-5.85,32.469-11.376,63.137-18.12,90.778c-1.105,4.528,1.67,9.094,6.199,10.199c4.523,1.106,9.094-1.67,10.199-6.198
			c6.867-28.141,12.696-60.496,18.334-91.785c1.927-10.698,3.87-21.474,5.868-32.182c1.465,5.188,2.938,10.489,4.437,15.886
			c13.806,49.701,29.453,106.034,61.589,150.135c37.686,51.718,90.842,76.858,162.507,76.858c4.662,0,8.439-3.778,8.439-8.439
			s-3.777-8.439-8.439-8.439c-65.888,0-114.581-22.871-148.866-69.92c-30.334-41.627-45.547-96.393-58.967-144.712
			c-4.526-16.293-8.932-32.136-13.724-46.8c1.969-9.37,4.025-18.547,6.196-27.429c29.519,10.422,43.253,55.405,58.848,106.489
			c12.35,40.453,25.12,82.283,47.822,115.239c26.782,38.877,62.347,57.367,108.845,56.505c4.661-0.085,8.369-3.933,8.283-8.593
			c-0.086-4.661-3.936-8.404-8.593-8.281c-40.93,0.743-70.992-14.882-94.636-49.205c-21.22-30.805-33.604-71.366-45.58-110.591
			c-16.58-54.31-32.355-105.985-70.709-118.062c2.868-10.399,5.941-20.25,9.284-29.342c22.093-60.097,47.122-60.097,55.346-60.097
			c40.916,0,56.772,83.273,72.106,163.803c14.691,77.154,29.882,156.934,69.309,186.227c1.512,1.124,3.277,1.665,5.026,1.665
			c2.579,0,5.125-1.178,6.78-3.406c2.779-3.741,2-9.027-1.742-11.807c-34.143-25.368-48.708-101.861-62.794-175.837
			c-17.382-91.293-33.802-177.524-88.686-177.524c-41.918,0-65.125,44.269-81.368,103.69c-0.389-0.007-0.774-0.02-1.167-0.02
			c-4.133,0-8.053,0.423-11.788,1.214c-14.754-25.021-33.666-37.21-57.716-37.21c-26.136,0-45.792,14.476-60.096,44.254
			c-13.136,27.349-20.444,65.441-25.859,99.095c-0.74,4.602,2.389,8.932,6.991,9.673c4.603,0.741,8.932-2.39,9.672-6.991
			c12.833-79.736,28.902-129.155,69.293-129.155c18.357,0,31.422,9.917,41.839,26.56c-36.505,21.759-50.856,88.193-65.883,157.8
			c-6.336,29.35-12.887,59.698-21.19,87.143c-12.248,40.487-40.899,68.594-85.156,83.542c-2.037,0.687-4.061,1.329-6.069,1.93
			c22.934-21.609,38.845-55.344,47.387-100.605c5.094-26.994,9.065-54.554,12.904-81.208l0.162-1.122
			c0.665-4.619,1.327-9.212,1.99-13.769c0.672-4.612-2.524-8.895-7.136-9.566c-4.598-0.666-8.895,2.523-9.566,7.136
			c-0.665,4.566-1.328,9.166-1.994,13.793l-0.162,1.122c-3.813,26.475-7.757,53.851-12.782,80.486
			c-9.068,48.055-27.483,82.704-53.252,100.204c-11.099,7.537-21.409,10.399-28.128,11.475V135.73c0-4.661-3.777-8.439-8.439-8.439
			c-4.662,0-8.439,3.778-8.439,8.439v367.798c0,0.036,0.005,0.071,0.006,0.107c0.001,0.096,0.006,0.19,0.01,0.286
			c0.003,0.069,0.003,0.138,0.008,0.206c0.003,0.049,0.01,0.098,0.015,0.146c0.007,0.075,0.013,0.15,0.022,0.224
			c0.01,0.087,0.023,0.171,0.035,0.257c0.01,0.071,0.017,0.143,0.029,0.214c0.008,0.047,0.02,0.095,0.028,0.142
			c0.015,0.079,0.03,0.156,0.047,0.234c0.016,0.073,0.035,0.145,0.053,0.217c0.018,0.073,0.033,0.148,0.053,0.222
			c0.012,0.045,0.027,0.088,0.041,0.133c0.025,0.083,0.049,0.165,0.077,0.248c0.019,0.06,0.042,0.117,0.063,0.176
			c0.027,0.075,0.049,0.152,0.079,0.226c0.016,0.042,0.035,0.082,0.052,0.124c0.035,0.087,0.072,0.172,0.109,0.257
			c0.02,0.047,0.045,0.092,0.066,0.138c0.035,0.075,0.068,0.153,0.105,0.228c0.019,0.038,0.04,0.075,0.06,0.112
			c0.046,0.088,0.093,0.174,0.143,0.261c0.017,0.029,0.035,0.057,0.052,0.086c0.008,0.013,0.016,0.026,0.024,0.038
			c0.042,0.07,0.079,0.142,0.122,0.21c0.023,0.035,0.046,0.069,0.069,0.104c0.056,0.087,0.115,0.171,0.174,0.255
			c0.011,0.016,0.023,0.03,0.034,0.045c0.017,0.024,0.035,0.046,0.052,0.069c0.046,0.063,0.089,0.128,0.137,0.19
			c0.025,0.031,0.051,0.063,0.077,0.095c0.066,0.083,0.134,0.164,0.204,0.244c0.006,0.007,0.012,0.013,0.018,0.019
			c0.025,0.028,0.051,0.055,0.076,0.083c0.052,0.057,0.099,0.118,0.152,0.173c0.027,0.029,0.055,0.056,0.083,0.086
			c0.075,0.078,0.152,0.153,0.23,0.228c0.002,0.002,0.006,0.005,0.008,0.007c0.03,0.029,0.062,0.056,0.092,0.084
			c0.056,0.053,0.11,0.108,0.168,0.159c0.029,0.026,0.06,0.051,0.09,0.075c0.117,0.1,0.24,0.195,0.362,0.289
			c0.061,0.046,0.119,0.096,0.181,0.141c0.031,0.023,0.064,0.044,0.096,0.066c0.128,0.09,0.261,0.173,0.394,0.257
			c0.064,0.039,0.126,0.082,0.191,0.12c0.034,0.019,0.068,0.038,0.101,0.057c0.138,0.079,0.281,0.151,0.425,0.222
			c0.066,0.033,0.13,0.069,0.198,0.1c0.035,0.016,0.071,0.03,0.106,0.046c0.15,0.066,0.303,0.126,0.457,0.183
			c0.068,0.026,0.133,0.054,0.201,0.078c0.036,0.012,0.072,0.024,0.108,0.036c0.16,0.053,0.324,0.098,0.488,0.142
			c0.069,0.018,0.135,0.039,0.204,0.056c0.036,0.009,0.073,0.016,0.11,0.025c0.169,0.038,0.341,0.066,0.513,0.095
			c0.071,0.011,0.14,0.026,0.21,0.036c0.037,0.005,0.074,0.009,0.11,0.014c0.152,0.018,0.305,0.029,0.458,0.039
			c0.028,0.002,0.059,0.003,0.102,0.007c0.051,0.003,0.099,0.011,0.15,0.013c0.086,0.003,0.297,0.01,0.62,0.017
			c0.153,0.004,0.321,0.007,0.509,0.01c0.461,0.008,1.046,0.013,1.764,0.013c0.039,0,0.084,0,0.124,0
			c0.291,0.001,0.598,0.002,0.929,0.002c1.152,0,2.552-0.009,4.164-0.034h486.162c4.662,0,8.439-3.778,8.439-8.439
			C511.419,498.867,507.64,495.088,502.98,495.088z M270.79,165.7c-0.061,0.251-0.123,0.502-0.183,0.754
			c-0.106-0.241-0.215-0.475-0.322-0.714C270.453,165.725,270.623,165.715,270.79,165.7z"/>
	</g>
</g>
</svg>